<svg xmlns="http://www.w3.org/2000/svg" width="245" height="155" fill="none" viewBox="0 0 245 155">
  <rect width="245" height="155" fill="#1D1D1D" rx="30"/>
  <g clip-path="url(#a)">
    <path fill="#fff" d="M57.63 68.82c0 3.41.67 6.53 1.92 9.07 2.02-2.98 3.17-6.48 3.17-10.13 0-3.26-.91-5.04-2.45-5.04s-2.64 1.92-2.64 6.1Zm20.43-5.23c-2.45 0-4.32-1.82-4.32-4.32S75.61 55 78.06 55s4.37 1.82 4.37 4.27c0 2.45-1.87 4.32-4.37 4.32Zm-4.54 17.79c1.19-1.87 1.16-4.69 1.13-6.45 0-.43-.03-1.12.06-1.14.22-.03.13 4.08 2.3 8.08.44.8.57 1.03.73 1.59.79 2.88-3.53 5.5-4.21 5.88-5.27 2.79-9.98 1.86-14.75-1.27a26.284 26.284 0 0 1-6.1 3.02l-2.69-5.62c1.49-.58 2.93-1.34 4.22-2.21-2.43-3.68-3.78-8.48-3.78-13.91 0-8.54 3.99-13.39 9.99-13.39s9.55 4.37 9.55 11.81c0 5.57-2.11 10.99-5.71 15.36.54.35 1.37.8 2.46.99 2.53.45 5.48-.65 6.81-2.74h-.01Zm8.11 1.88c0 .43.09 1.56.41 2.2.62 1.35 2.66 1.55 3.21 1.32 0 0 1.04-.25 1.81-1.24.18-.2.8-1.22.92-1.43.17-.41 2.01-1.51 2.35-1.41.39.09.6.51.72.9.48 1.58.2 3.36-.66 4.77-.16.26-1.39 2.27-3.85 2.97-.3.09-.88.22-1.77.24-.68.01-5.02.08-7.86-3.19-3.22-3.61-2.04-7.23-2.24-11.34v-9.94h7.01c-.02 7.37-.03 14.74-.05 22.11-1.71-.99-3.43-1.98-5.14-2.96l-1.21-3.05c4.92-.43 6.3-.26 6.37.06l-.02-.01Zm33.9 1c.32-.38.6-.8 2.18-1.36.75-.24 1.13-.35 1.55-.22.32.1.59.34.78.61.56.79.47 1.94.47 1.94-.74 4.09-4.43 5.76-8.37 5.86-6.51-.13-7.62-4.24-7.48-7.19v-5.71c0-2.98-1.89-4.9-4.76-4.9-.27 0-2.42.02-3.88 1.52-1.08 1.11-.94 2.29-1.74 9.53-.07.65-.2 1.71-.81 2.9a7.813 7.813 0 0 1-2.24 2.62c-.56.35-1.79 1.07-3.34 1.43-1.57.33-2.05.29-2.92.29-.5-.79-.47-1.08-.48-1.78-.1-.41-.36-.51-.3-.69.03-.15.59-.28.82-.66.47-.8-.14-.54.97-1.19.02-.02.88-.58 1.27-1.47.31-.72.46-2.25.44-2.46.03-.91.05-4.35-.03-9.03v-7.2h7v2.4c5.99-5.98 16.92-2.61 17 6.52v6.35c0 .49.13.89.35 1.21.43.6 1.16.75 1.46.81.4.08 1.17.25 1.81-.17 1.71-1.3.59-3.8 1.19-4.88.28-.09.54 1.23 1.75 2.02.77.51 1.1.23 1.81.81.69.55 1.14 2 1.14 2 .26.83.65 1.59.88 2.38l-6.52-2.29Zm13.11 7.41c-17.57-.2-17.58-25.41-.05-25.63 8.25-.12 14.42 7.01 13.01 15.06h-18.72c1.14 5.16 8.45 6.15 11.04 2h7.49c-1.82 5.22-6.72 8.58-12.77 8.58v-.01Zm-.05-19.99c-2.78 0-4.9 1.73-5.66 4.42h11.38c-.77-2.69-2.93-4.42-5.71-4.42h-.01Zm26.476 20.11c-2.45 0-4.53-.56-6.22-1.67-1.69-1.11-2.87-2.62-3.54-4.51-.65-1.92-.67-4.09-.07-6.49l4.83-19.27h6.46l-4.93 19.76c-.3 1.23-.31 2.3-.04 3.23.28.93.78 1.66 1.49 2.19.74.51 1.63.76 2.67.76 1.39 0 2.57-.43 3.54-1.28.99-.88 1.68-2.04 2.05-3.47l5.28-21.18h6.25l-5.49 21.94c-.79 3.12-2.26 5.58-4.41 7.36-2.13 1.76-4.76 2.64-7.88 2.64l.01-.01Zm12.16 9.72 7.81-31.25h5.21l-.45 1.77c.83-.67 1.76-1.22 2.78-1.63 1.02-.42 2.11-.62 3.26-.62 1.67 0 3.16.42 4.48 1.25 1.32.81 2.36 1.92 3.12 3.33.76 1.41 1.15 3.01 1.15 4.79 0 1.67-.34 3.25-1.01 4.76a13.51 13.51 0 0 1-2.74 3.96 12.888 12.888 0 0 1-3.89 2.74c-1.46.65-2.98.97-4.55.97-1.16 0-2.26-.19-3.3-.56a9.121 9.121 0 0 1-2.78-1.56l-3.06 12.05h-6.04.01Zm15.63-15.28c1.11 0 2.13-.29 3.05-.87a6.78 6.78 0 0 0 2.22-2.33c.56-.95.83-1.97.83-3.06 0-.93-.21-1.75-.62-2.47a4.51 4.51 0 0 0-1.67-1.77c-.72-.44-1.55-.66-2.5-.66-1.11 0-2.13.3-3.06.9-.93.58-1.67 1.34-2.22 2.29-.56.95-.83 1.98-.83 3.09 0 .93.2 1.76.59 2.5.42.72.98 1.3 1.7 1.74.74.42 1.57.62 2.5.62l.01.02Z"/>
  </g>
  <defs>
    <clipPath id="a">
      <path fill="#fff" d="M50 55h144.88v46.51H50z"/>
    </clipPath>
  </defs>
</svg>
