<svg xmlns="http://www.w3.org/2000/svg" width="245" height="155" fill="none" viewBox="0 0 245 155">
  <rect width="245" height="155" fill="#FFCF70" rx="30"/>
  <path fill="#4D3F54" d="M186.141 68.78c1.669 0 3.159.42 4.479 1.25 1.32.81 2.36 1.92 3.12 3.33.76 1.41 1.151 3.01 1.151 4.79 0 1.67-.341 3.25-1.011 4.76-.67 1.48-1.589 2.8-2.739 3.96a12.893 12.893 0 0 1-3.891 2.74c-1.46.65-2.98.97-4.55.97-1.16 0-2.26-.19-3.3-.56a9.122 9.122 0 0 1-2.78-1.56l-3.059 12.05h-6.031l7.81-31.25h5.211l-.45 1.77c.829-.67 1.759-1.22 2.779-1.63 1.02-.42 2.111-.62 3.261-.62ZM151.9 78.61c-.3 1.23-.31 2.3-.04 3.23.28.93.781 1.66 1.491 2.19.74.51 1.63.76 2.67.76 1.389 0 2.57-.43 3.54-1.28.989-.88 1.679-2.04 2.049-3.47l5.281-21.18h6.25L167.65 80.8c-.79 3.12-2.26 5.58-4.41 7.36-2.13 1.76-4.76 2.64-7.88 2.64l.01-.01c-2.45 0-4.53-.56-6.22-1.67-1.69-1.11-2.87-2.62-3.54-4.51-.65-1.92-.67-4.09-.07-6.49l4.83-19.27h6.46l-4.93 19.76ZM60.43 54.96c6 0 9.55 4.37 9.55 11.81 0 5.57-2.11 10.99-5.71 15.36.54.35 1.37.8 2.46.99 2.53.45 5.48-.65 6.81-2.74h-.01c1.19-1.87 1.16-4.69 1.13-6.45 0-.34-.017-.842.02-1.047V66.11h7.01c-.014 5.38-.025 10.76-.037 16.141.003.006.006.012.007.018l-.007-.003v.314c.032.53.139 1.364.397 1.88.62 1.35 2.66 1.55 3.21 1.32 0 0 1.04-.25 1.81-1.24.084-.093.261-.364.44-.647.137-.687.204-1.422.19-1.563.03-.91.05-4.35-.03-9.03v-7.2h7v2.4c5.99-5.98 16.92-2.61 17 6.52v6.35c0 .49.13.89.35 1.21.43.6 1.16.75 1.46.81.401.08 1.17.25 1.81-.17a2.35 2.35 0 0 0 .83-1.186c-2.396-7.389 1.765-16.86 12.48-16.994 8.249-.12 14.42 7.01 13.01 15.06h-18.72c1.14 5.16 8.45 6.15 11.04 2h7.49c-1.82 5.22-6.72 8.58-12.77 8.58v-.01c-4.074-.046-7.204-1.438-9.39-3.55-1.571 2.013-4.275 2.898-7.11 2.97-6.509-.13-7.62-4.24-7.48-7.19v-5.71c0-2.98-1.89-4.9-4.76-4.9-.27 0-2.42.02-3.88 1.52-1.08 1.11-.94 2.29-1.74 9.53-.07.65-.2 1.71-.81 2.9a7.814 7.814 0 0 1-2.24 2.62c-.56.35-1.79 1.07-3.34 1.43-1.57.33-2.05.29-2.92.29l-.004-.008c-.064.003-.129.007-.196.008-.68.01-5.02.08-7.86-3.19a9.64 9.64 0 0 1-.781-.998 13.47 13.47 0 0 1-2.599 1.948c-5.27 2.79-9.98 1.86-14.75-1.27a26.28 26.28 0 0 1-6.1 3.02L50 84.47c1.49-.58 2.93-1.34 4.22-2.21-2.43-3.68-3.78-8.48-3.78-13.91 0-8.54 3.99-13.39 9.99-13.39Zm124.04 19.11c-1.11 0-2.131.3-3.061.9-.93.58-1.67 1.34-2.22 2.29-.56.95-.83 1.98-.83 3.09 0 .93.2 1.76.59 2.5.42.72.98 1.3 1.7 1.74.74.42 1.57.62 2.5.62l.01.02c1.11 0 2.13-.29 3.05-.87.93-.6 1.671-1.38 2.221-2.33.56-.95.83-1.97.83-3.06 0-.93-.21-1.75-.62-2.47a4.517 4.517 0 0 0-1.67-1.77c-.72-.44-1.55-.66-2.5-.66ZM60.281 61.72c-1.54 0-2.641 1.92-2.641 6.1 0 3.41.67 6.53 1.92 9.07 2.02-2.98 3.17-6.48 3.17-10.13 0-3.26-.91-5.04-2.45-5.04Zm68.319 8.96c-2.78 0-4.899 1.73-5.66 4.42h11.38c-.77-2.69-2.93-4.42-5.71-4.42h-.01ZM78.07 54c2.45 0 4.37 1.82 4.37 4.27 0 2.45-1.87 4.32-4.37 4.32-2.45 0-4.32-1.82-4.32-4.32S75.62 54 78.07 54Z"/>
</svg>
