<svg xmlns="http://www.w3.org/2000/svg" width="71" height="73" fill="none" viewBox="0 0 71 73">
  <rect width="70.423" height="72.086" fill="#1D1D1D" rx="16.228"/>
  <g clip-path="url(#a)">
    <path fill="#fff" d="M29.28 50.128h-1.532c-2.953 0-5.555-.88-7.741-2.417a20.972 20.972 0 0 1-4.869 2.417l-2.146-4.498a17.293 17.293 0 0 0 3.367-1.77c-1.939-2.953-3.016-6.795-3.016-11.142 0-6.836 3.184-10.718 7.972-10.718 4.789 0 7.622 3.498 7.622 9.453 0 4.459-1.684 8.798-4.557 12.296.67.368 1.38.64 2.139.8.327.064.87.16 1.54.16.383 0 .782 0 1.3-.12a4.879 4.879 0 0 0 1.318-.528c.135-.08.55-.337.99-.793.27-.288.821-.928 1.531-2.898.224-.616.495-1.472.743-2.529.215.544 1.755 4.499 2.426 6.74.088.28.175.656.104 1.12-.152 1.001-.942 1.626-1.796 2.282-.271.208-1.42 1.089-3.336 1.68a14.87 14.87 0 0 1-2.043.473l-.016-.008ZM19.089 32.294c0 2.73.535 5.227 1.532 7.26 1.612-2.385 2.53-5.187 2.53-8.109 0-2.61-.726-4.034-1.955-4.034-1.23 0-2.107 1.537-2.107 4.883Z"/>
    <path fill="#fff" d="M42.033 50.128c-2.115 0-3.902-.48-5.355-1.44a7.632 7.632 0 0 1-3.056-3.907c-.559-1.665-.583-3.53-.064-5.611l4.166-16.658h5.562l-4.254 17.082c-.255 1.057-.27 1.993-.031 2.794.239.8.67 1.432 1.284 1.889.639.44 1.405.664 2.307.664 1.197 0 2.218-.368 3.056-1.113.862-.76 1.445-1.76 1.764-3.001l4.557-18.315h5.387L52.63 41.483c-.678 2.706-1.947 4.819-3.798 6.364-1.836 1.52-4.102 2.281-6.792 2.281h-.008Z"/>
  </g>
  <defs>
    <clipPath id="a">
      <path fill="#fff" d="M13 22h44.423v28.086H13z"/>
    </clipPath>
  </defs>
</svg>
