<svg xmlns="http://www.w3.org/2000/svg" width="69" height="69" fill="none" viewBox="0 0 69 69">
  <rect width="68.426" height="68.823" fill="#4D3F54" rx="15.498"/>
  <g clip-path="url(#a)">
    <path fill="#FFCF70" d="M28.548 47.864h-1.463c-2.82 0-5.305-.841-7.393-2.31a20.007 20.007 0 0 1-4.65 2.31l-2.05-4.297a16.52 16.52 0 0 0 3.217-1.69c-1.852-2.82-2.881-6.49-2.881-10.64 0-6.53 3.04-10.237 7.614-10.237 4.573 0 7.279 3.34 7.279 9.029 0 4.258-1.609 8.401-4.352 11.742.64.352 1.318.611 2.042.764.313.061.83.153 1.471.153.366 0 .747 0 1.242-.114a4.66 4.66 0 0 0 1.258-.505c.13-.077.526-.321.945-.757.26-.275.785-.887 1.464-2.767a21.69 21.69 0 0 0 .708-2.416c.206.52 1.677 4.296 2.317 6.437.084.267.168.627.1 1.07-.145.956-.9 1.552-1.715 2.179-.26.199-1.357 1.04-3.186 1.605-.808.252-1.494.375-1.951.451l-.016-.007ZM18.815 30.83c0 2.607.51 4.992 1.464 6.934 1.54-2.278 2.416-4.954 2.416-7.744 0-2.492-.694-3.853-1.868-3.853-1.173 0-2.012 1.468-2.012 4.663Z"/>
    <path fill="#FFCF70" d="M40.728 47.864c-2.02 0-3.727-.459-5.114-1.376a7.29 7.29 0 0 1-2.92-3.731c-.533-1.59-.556-3.371-.06-5.359l3.978-15.909h5.312l-4.062 16.314c-.244 1.01-.26 1.904-.03 2.668.228.765.64 1.369 1.227 1.804.61.42 1.341.635 2.202.635 1.143 0 2.12-.352 2.92-1.063.823-.726 1.379-1.682 1.684-2.867l4.352-17.49h5.145l-4.513 18.117c-.647 2.584-1.86 4.602-3.627 6.078-1.754 1.452-3.918 2.179-6.487 2.179h-.007Z"/>
  </g>
  <defs>
    <clipPath id="a">
      <path fill="#fff" d="M13 21h42.426v26.823H13z"/>
    </clipPath>
  </defs>
</svg>
