<svg xmlns="http://www.w3.org/2000/svg" width="71" height="73" fill="none" viewBox="0 0 71 73">
  <rect width="69.423" height="71.086" x=".5" y=".5" fill="#fff" rx="15.728"/>
  <rect width="69.423" height="71.086" x=".5" y=".5" stroke="#000" rx="15.728"/>
  <g clip-path="url(#a)">
    <path fill="#1D1D1D" d="M29.28 50.128h-1.532c-2.953 0-5.554-.88-7.74-2.417a20.972 20.972 0 0 1-4.869 2.417l-2.147-4.498a17.293 17.293 0 0 0 3.368-1.77c-1.94-2.953-3.017-6.795-3.017-11.142 0-6.836 3.185-10.718 7.973-10.718s7.621 3.498 7.621 9.453c0 4.459-1.684 8.798-4.557 12.296.67.368 1.381.64 2.14.8.326.064.87.16 1.54.16.383 0 .782 0 1.3-.12a4.879 4.879 0 0 0 1.317-.528c.136-.08.55-.337.99-.793.271-.288.822-.928 1.532-2.898.223-.616.495-1.472.742-2.529.216.544 1.756 4.499 2.426 6.74.088.28.176.656.104 1.12-.152 1.001-.942 1.626-1.796 2.282-.271.208-1.42 1.089-3.335 1.68-.846.265-1.565.393-2.044.473l-.015-.008ZM19.09 32.294c0 2.73.534 5.227 1.532 7.26 1.612-2.385 2.53-5.187 2.53-8.109 0-2.61-.727-4.034-1.956-4.034s-2.107 1.537-2.107 4.883Z"/>
    <path fill="#1D1D1D" d="M42.034 50.128c-2.115 0-3.903-.48-5.355-1.44a7.632 7.632 0 0 1-3.057-3.907c-.559-1.665-.582-3.53-.064-5.611l4.166-16.658h5.563l-4.254 17.082c-.255 1.057-.271 1.993-.032 2.794.24.8.67 1.432 1.285 1.889.638.44 1.404.664 2.306.664 1.197 0 2.219-.368 3.057-1.113.862-.76 1.444-1.76 1.764-3.001l4.556-18.315h5.387l-4.724 18.971c-.678 2.706-1.947 4.819-3.799 6.364-1.835 1.52-4.102 2.281-6.791 2.281h-.008Z"/>
  </g>
  <defs>
    <clipPath id="a">
      <path fill="#fff" d="M13 22h44.423v28.086H13z"/>
    </clipPath>
  </defs>
</svg>
