<svg width="17" height="15" viewBox="0 0 17 15" fill="none" xmlns="http://www.w3.org/2000/svg">
<path d="M11.9209 4C12.0814 4 12.26 4.06502 12.4092 4.21973L12.4102 4.2207C12.5619 4.37801 12.6669 4.61478 12.667 4.88477C12.667 5.15506 12.5619 5.3926 12.4102 5.5498H12.4092C10.9523 7.05995 9.66844 8.45761 8.36523 9.80859L4.25684 5.5498C3.91454 5.19472 3.91439 4.57469 4.25684 4.21973C4.41231 4.05867 4.58457 4.00001 4.74512 4C4.90567 4 5.07792 4.05868 5.2334 4.21973L5.4541 4.44922C6.20792 5.2306 7.24728 5.67184 8.33301 5.67188C9.41878 5.67187 10.4581 5.23064 11.2119 4.44922L11.4326 4.2207L11.4336 4.21973C11.5827 4.0651 11.7604 4.00006 11.9209 4Z" stroke="#FFCF70" stroke-width="8" stroke-linejoin="round"/>
</svg>
