<svg width="24" height="24" viewBox="0 0 24 24" fill="none" xmlns="http://www.w3.org/2000/svg">
<path d="M8.68377 6.89459L4.31623 5.43874C3.6687 5.2229 3 5.70487 3 6.38743V16.2792C3 16.7097 3.27543 17.0918 3.68377 17.2279L8.68377 18.8946C8.88904 18.963 9.11096 18.963 9.31623 18.8946L14.6838 17.1054C14.889 17.037 15.111 17.037 15.3162 17.1054L19.6838 18.5613C20.3313 18.7771 21 18.2951 21 17.6126V7.72076C21 7.29033 20.7246 6.90819 20.3162 6.77208L15.3162 5.10541C15.111 5.03699 14.889 5.03699 14.6838 5.10541L9.31623 6.89459C9.11096 6.96301 8.88904 6.96301 8.68377 6.89459Z" stroke="black" stroke-width="1.5"/>
<path d="M9 7V19" stroke="black" stroke-width="1.5"/>
<path d="M15 5V17" stroke="black" stroke-width="1.5"/>
</svg>
